# xmcd
#
# Track frame offsets:
#	150
#	9990
#	25652
#	41410
#	53045
#	67245
#	78282
#	96515
#	110432
#	118462
#	131082
#	141940
#	160365
#	175000
#	187687
#	201657
#	215332
#	226862
#	237165
#	250375
#
# Disc length: 3487 seconds
#
# Revision: 4
# Processed by: cddbd v1.5.2PL0 Copyright (c) Steve Scherf et al.
# Submitted via: audiograbber 1.83.01
#
DISCID=1a0d9d14
DTITLE=Zillertaler Schürzenjäger - 20 Top Volltreffer
DYEAR=1994
DGENRE=Schlager
TTITLE0=Zeit Für Fröhlichkeit
TTITLE1=Zillertaler Hochzeitsmarsch (Tramplan)
TTITLE2=Grüne Tannen
TTITLE3=Die Berge Sind Mein Zuhaus
TTITLE4=Ich Habe Die Zu Danken
TTITLE5=Der Holzknecht
TTITLE6=Ich Lieb' Die Berge Meiner Heimat
TTITLE7=La, La, La
TTITLE8=Granatenpolka
TTITLE9=Schifahr'n Ist Schön
TTITLE10=I' Komm' Heut' Nacht Auf A Bussl Zu Dir
TTITLE11=Ischia, Isola, Bella
TTITLE12=Auf Und Nieder
TTITLE13=Wir Sind Musikanten
TTITLE14=Lieben Heißt Von Herzen Geben
TTITLE15=Logo, Logo
TTITLE16=Der Alte Vater
TTITLE17=Marsch Der Freiwilligen Feuerwehr
TTITLE18=1, 2, 3, 4 Oder 5 Runden Bier
TTITLE19=Verliebt In Die Heimat
EXTD=
EXTT0=
EXTT1=
EXTT2=
EXTT3=
EXTT4=
EXTT5=
EXTT6=
EXTT7=
EXTT8=
EXTT9=
EXTT10=
EXTT11=
EXTT12=
EXTT13=
EXTT14=
EXTT15=
EXTT16=
EXTT17=
EXTT18=
EXTT19=
PLAYORDER=
